<svg height="512pt" viewBox="0 0 512 512" width="512pt" xmlns="http://www.w3.org/2000/svg"><path d="m512 256c0 111.175781-70.863281 205.792969-169.890625 241.152344-.363281.136718-.742187.261718-1.105469.386718-26.59375 9.371094-55.203125 14.460938-85.003906 14.460938-5.296875 0-10.554688-.15625-15.777344-.480469-.753906-.042969-1.503906-.09375-2.246094-.144531-132.976562-9.25-237.976562-120.050781-237.976562-255.375 0-141.386719 114.613281-256 256-256 19.863281 0 39.195312 2.257812 57.761719 6.550781.242187.054688.492187.117188.730469.167969 48.191406 11.253906 91.148437 36.132812 124.59375 70.351562.585937.605469 1.183593 1.214844 1.757812 1.820313 44.074219 45.976563 71.15625 108.386719 71.15625 177.109375zm0 0" fill="#4267b2"/><path d="m341.003906 128.855469v71.617187h98.238282l-13.570313 103.027344h-84.667969v194.039062c-26.59375 9.371094-55.203125 14.460938-85.003906 14.460938-5.296875 0-10.554688-.15625-15.777344-.480469-.753906-.042969-1.503906-.09375-2.246094-.144531v-207.875h-85.066406v-103.027344h85.066406v-86.527344c0-49.546874 31.617188-91.710937 75.785157-107.394531 11.921875-4.242187 24.773437-6.550781 38.160156-6.550781h41.953125c14.292969 0 46.96875 5.800781 46.96875 5.800781v86.851563h-63.636719c-19.988281 0-36.203125 16.207031-36.203125 36.203125zm0 0" fill="#f1f1f1"/></svg>